<svg xmlns="http://www.w3.org/2000/svg" version="1.1" xmlns:xlink="http://www.w3.org/1999/xlink" xmlns:svgjs="http://svgjs.dev/svgjs" width="1920" height="1080" preserveAspectRatio="none" viewBox="0 0 1920 1080"><g mask="url(&quot;#SvgjsMask3075&quot;)" fill="none"><rect width="1920" height="1080" x="0" y="0" fill="url(&quot;#SvgjsRadialGradient3076&quot;)"></rect><path d="M71.55 205.15L120.05 233.15L120.05 289.15L71.55 317.15L23.05 289.15L23.05 233.15zM71.55 709.15L120.05 737.15L120.05 793.15L71.55 821.15L23.05 793.15L23.05 737.15zM120.05 -46.85L168.55 -18.85L168.55 37.15L120.05 65.15L71.55 37.15L71.55 -18.85zM217.05 625.15L265.54 653.15L265.54 709.15L217.05 737.15L168.55 709.15L168.55 653.15zM217.05 961.15L265.54 989.15L265.54 1045.15L217.05 1073.15L168.55 1045.15L168.55 989.15zM265.54 1045.15L314.04 1073.15L314.04 1129.15L265.54 1157.15L217.05 1129.15L217.05 1073.15zM362.54 541.15L411.04 569.15L411.04 625.15L362.54 653.15L314.04 625.15L314.04 569.15zM411.04 121.15L459.54 149.15L459.54 205.15L411.04 233.15L362.54 205.15L362.54 149.15zM459.54 709.15L508.04 737.15L508.04 793.15L459.54 821.15L411.04 793.15L411.04 737.15zM459.54 1045.15L508.04 1073.15L508.04 1129.15L459.54 1157.15L411.04 1129.15L411.04 1073.15zM508.04 121.15L556.54 149.15L556.54 205.15L508.04 233.15L459.54 205.15L459.54 149.15zM556.54 205.15L605.04 233.15L605.04 289.15L556.54 317.15L508.04 289.15L508.04 233.15zM508.04 289.15L556.54 317.15L556.54 373.15L508.04 401.15L459.54 373.15L459.54 317.15zM653.53 205.15L702.03 233.15L702.03 289.15L653.53 317.15L605.04 289.15L605.04 233.15zM605.04 457.15L653.53 485.15L653.53 541.15L605.04 569.15L556.54 541.15L556.54 485.15zM653.53 541.15L702.03 569.15L702.03 625.15L653.53 653.15L605.04 625.15L605.04 569.15zM653.53 709.15L702.03 737.15L702.03 793.15L653.53 821.15L605.04 793.15L605.04 737.15zM702.03 -46.85L750.53 -18.85L750.53 37.15L702.03 65.15L653.53 37.15L653.53 -18.85zM702.03 121.15L750.53 149.15L750.53 205.15L702.03 233.15L653.53 205.15L653.53 149.15zM750.53 541.15L799.03 569.15L799.03 625.15L750.53 653.15L702.03 625.15L702.03 569.15zM799.03 121.15L847.53 149.15L847.53 205.15L799.03 233.15L750.53 205.15L750.53 149.15zM847.53 1045.15L896.03 1073.15L896.03 1129.15L847.53 1157.15L799.03 1129.15L799.03 1073.15zM944.53 541.15L993.03 569.15L993.03 625.15L944.53 653.15L896.03 625.15L896.03 569.15zM1041.52 373.15L1090.02 401.15L1090.02 457.15L1041.52 485.15L993.03 457.15L993.03 401.15zM993.03 625.15L1041.52 653.15L1041.52 709.15L993.03 737.15L944.53 709.15L944.53 653.15zM1041.52 709.15L1090.02 737.15L1090.02 793.15L1041.52 821.15L993.03 793.15L993.03 737.15zM1090.02 -46.85L1138.52 -18.85L1138.52 37.15L1090.02 65.15L1041.52 37.15L1041.52 -18.85zM1235.52 373.15L1284.02 401.15L1284.02 457.15L1235.52 485.15L1187.02 457.15L1187.02 401.15zM1187.02 961.15L1235.52 989.15L1235.52 1045.15L1187.02 1073.15L1138.52 1045.15L1138.52 989.15zM1381.02 121.15L1429.52 149.15L1429.52 205.15L1381.02 233.15L1332.52 205.15L1332.52 149.15zM1429.52 205.15L1478.01 233.15L1478.01 289.15L1429.52 317.15L1381.02 289.15L1381.02 233.15zM1429.52 877.15L1478.01 905.15L1478.01 961.15L1429.52 989.15L1381.02 961.15L1381.02 905.15zM1478.01 289.15L1526.51 317.15L1526.51 373.15L1478.01 401.15L1429.52 373.15L1429.52 317.15zM1575.01 -46.85L1623.51 -18.85L1623.51 37.15L1575.01 65.15L1526.51 37.15L1526.51 -18.85zM1672.01 289.15L1720.51 317.15L1720.51 373.15L1672.01 401.15L1623.51 373.15L1623.51 317.15zM1672.01 457.15L1720.51 485.15L1720.51 541.15L1672.01 569.15L1623.51 541.15L1623.51 485.15zM1720.51 709.15L1769.01 737.15L1769.01 793.15L1720.51 821.15L1672.01 793.15L1672.01 737.15zM1817.51 37.15L1866 65.15L1866 121.15L1817.51 149.15L1769.01 121.15L1769.01 65.15zM1769.01 793.15L1817.51 821.15L1817.51 877.15L1769.01 905.15L1720.51 877.15L1720.51 821.15zM1914.5 373.15L1963 401.15L1963 457.15L1914.5 485.15L1866 457.15L1866 401.15zM1866 457.15L1914.5 485.15L1914.5 541.15L1866 569.15L1817.51 541.15L1817.51 485.15zM1866 625.15L1914.5 653.15L1914.5 709.15L1866 737.15L1817.51 709.15L1817.51 653.15z" stroke="url(&quot;#SvgjsLinearGradient3077&quot;)" stroke-width="2"></path></g><defs><mask id="SvgjsMask3075"><rect width="1920" height="1080" fill="#ffffff"></rect></mask><radialGradient cx="50%" cy="50%" r="1101.45" gradientUnits="userSpaceOnUse" id="SvgjsRadialGradient3076"><stop stop-color="#0e2a47" offset="0"></stop><stop stop-color="rgba(189, 218, 255, 0.14)" offset="0"></stop></radialGradient><linearGradient x1="210.048" y1="-209.95200000000003" x2="1709.9520000000002" y2="1289.952" gradientUnits="userSpaceOnUse" id="SvgjsLinearGradient3077"><stop stop-color="#0e2a47" offset="0"></stop><stop stop-color="rgba(0, 171, 255, 0.36)" offset="0"></stop><stop stop-color="rgba(0, 171, 255, 0.36)" offset="0"></stop></linearGradient></defs></svg>