<svg xmlns="http://www.w3.org/2000/svg" version="1.1" xmlns:xlink="http://www.w3.org/1999/xlink" xmlns:svgjs="http://svgjs.dev/svgjs" width="1920" height="1080" preserveAspectRatio="none" viewBox="0 0 1920 1080"><g mask="url(&quot;#SvgjsMask2187&quot;)" fill="none"><rect width="1920" height="1080" x="0" y="0" fill="url(&quot;#SvgjsRadialGradient2188&quot;)"></rect><path d="M157.63 201.33L206.13 229.33L206.13 285.33L157.63 313.33L109.13 285.33L109.13 229.33zM157.63 705.33L206.13 733.33L206.13 789.33L157.63 817.33L109.13 789.33L109.13 733.33zM157.63 1041.33L206.13 1069.33L206.13 1125.33L157.63 1153.33L109.13 1125.33L109.13 1069.33zM254.62 201.33L303.12 229.33L303.12 285.33L254.62 313.33L206.13 285.33L206.13 229.33zM303.12 -50.67L351.62 -22.67L351.62 33.33L303.12 61.33L254.62 33.33L254.62 -22.67zM400.12 -50.67L448.62 -22.67L448.62 33.33L400.12 61.33L351.62 33.33L351.62 -22.67zM400.12 453.33L448.62 481.33L448.62 537.33L400.12 565.33L351.62 537.33L351.62 481.33zM545.62 537.33L594.12 565.33L594.12 621.33L545.62 649.33L497.12 621.33L497.12 565.33zM545.62 873.33L594.12 901.33L594.12 957.33L545.62 985.33L497.12 957.33L497.12 901.33zM594.12 285.33L642.61 313.33L642.61 369.33L594.12 397.33L545.62 369.33L545.62 313.33zM594.12 789.33L642.61 817.33L642.61 873.33L594.12 901.33L545.62 873.33L545.62 817.33zM739.61 33.33L788.11 61.33L788.11 117.33L739.61 145.33L691.11 117.33L691.11 61.33zM691.11 285.33L739.61 313.33L739.61 369.33L691.11 397.33L642.61 369.33L642.61 313.33zM739.61 369.33L788.11 397.33L788.11 453.33L739.61 481.33L691.11 453.33L691.11 397.33zM691.11 789.33L739.61 817.33L739.61 873.33L691.11 901.33L642.61 873.33L642.61 817.33zM739.61 873.33L788.11 901.33L788.11 957.33L739.61 985.33L691.11 957.33L691.11 901.33zM691.11 957.33L739.61 985.33L739.61 1041.33L691.11 1069.33L642.61 1041.33L642.61 985.33zM933.61 705.33L982.11 733.33L982.11 789.33L933.61 817.33L885.11 789.33L885.11 733.33zM885.11 957.33L933.61 985.33L933.61 1041.33L885.11 1069.33L836.61 1041.33L836.61 985.33zM1030.6 537.33L1079.1 565.33L1079.1 621.33L1030.6 649.33L982.11 621.33L982.11 565.33zM982.11 621.33L1030.6 649.33L1030.6 705.33L982.11 733.33L933.61 705.33L933.61 649.33zM982.11 789.33L1030.6 817.33L1030.6 873.33L982.11 901.33L933.61 873.33L933.61 817.33zM982.11 957.33L1030.6 985.33L1030.6 1041.33L982.11 1069.33L933.61 1041.33L933.61 985.33zM1176.1 -50.67L1224.6 -22.67L1224.6 33.33L1176.1 61.33L1127.6 33.33L1127.6 -22.67zM1224.6 873.33L1273.1 901.33L1273.1 957.33L1224.6 985.33L1176.1 957.33L1176.1 901.33zM1273.1 117.33L1321.6 145.33L1321.6 201.33L1273.1 229.33L1224.6 201.33L1224.6 145.33zM1758.09 453.33L1806.59 481.33L1806.59 537.33L1758.09 565.33L1709.59 537.33L1709.59 481.33zM1758.09 621.33L1806.59 649.33L1806.59 705.33L1758.09 733.33L1709.59 705.33L1709.59 649.33zM1806.59 873.33L1855.08 901.33L1855.08 957.33L1806.59 985.33L1758.09 957.33L1758.09 901.33zM1758.09 957.33L1806.59 985.33L1806.59 1041.33L1758.09 1069.33L1709.59 1041.33L1709.59 985.33zM1903.58 705.33L1952.08 733.33L1952.08 789.33L1903.58 817.33L1855.08 789.33L1855.08 733.33z" stroke="url(&quot;#SvgjsLinearGradient2189&quot;)" stroke-width="2"></path></g><defs><mask id="SvgjsMask2187"><rect width="1920" height="1080" fill="#ffffff"></rect></mask><radialGradient cx="50%" cy="50%" r="1101.45" gradientUnits="userSpaceOnUse" id="SvgjsRadialGradient2188"><stop stop-color="#0e2a47" offset="0"></stop><stop stop-color="rgba(217, 234, 255, 0.14)" offset="0"></stop></radialGradient><linearGradient x1="210.048" y1="-209.95200000000003" x2="1709.9520000000002" y2="1289.952" gradientUnits="userSpaceOnUse" id="SvgjsLinearGradient2189"><stop stop-color="#0e2a47" offset="0"></stop><stop stop-color="rgba(0, 69, 158, 0.08)" offset="0"></stop></linearGradient></defs></svg>